<svg xmlns="http://www.w3.org/2000/svg" width="900" height="1868" viewBox="0 0 900 1868"><title>A talajnedvesség elleni szigetelési munkák sorrendje</title><defs>
<pattern id="soil" width="22" height="22" patternUnits="userSpaceOnUse">
<rect width="22" height="22" fill="#efe3cf"/>
<path d="M2 20 L8 14 M13 9 L19 3" stroke="#8a6a45" stroke-width="1.6"/>
<circle cx="16" cy="17" r="1.6" fill="#8a6a45"/><circle cx="5" cy="6" r="1.3" fill="#8a6a45"/>
</pattern>
<pattern id="conc" width="20" height="20" patternUnits="userSpaceOnUse" patternTransform="rotate(45)">
<rect width="20" height="20" fill="#dfe1e4"/>
<line x1="0" y1="0" x2="0" y2="20" stroke="#6b7078" stroke-width="1.5"/>
<line x1="10" y1="4" x2="10" y2="10" stroke="#6b7078" stroke-width="1.5"/>
</pattern>
<pattern id="mas" width="14" height="14" patternUnits="userSpaceOnUse" patternTransform="rotate(45)">
<rect width="14" height="14" fill="#f6d9cc"/>
<line x1="0" y1="0" x2="0" y2="14" stroke="#a5462f" stroke-width="1.6"/>
</pattern>
</defs><rect width="900" height="1868" fill="#ffffff"/><text x="30" y="50" font-family="DejaVu Sans, Arial, sans-serif" font-size="34" font-weight="bold" text-anchor="start" fill="#1d2433">A szigetelési munkák sorrendje</text><text x="30" y="120" font-family="DejaVu Sans, Arial, sans-serif" font-size="31" font-weight="bold" text-anchor="start" fill="#1d2433">A) Pincézetlen épület</text><rect x="20" y="140" width="200" height="200" fill="#f7f8fa" stroke="#c9ced6" stroke-width="1.5"/><rect x="20" y="272" width="200" height="68" fill="url(#soil)"/><rect x="38" y="272" width="34" height="52" fill="url(#conc)" stroke="#1d2433" stroke-width="1.2"/><rect x="168" y="272" width="34" height="52" fill="url(#conc)" stroke="#1d2433" stroke-width="1.2"/><rect x="30" y="260" width="180" height="14" fill="url(#conc)" stroke="#1d2433" stroke-width="1.2"/><circle cx="44" cy="164" r="19" fill="#ffffff" stroke="#1d2433" stroke-width="2.5"/><text x="44" y="174" font-family="DejaVu Sans, Arial, sans-serif" font-size="28" font-weight="bold" text-anchor="middle" fill="#1d2433">1</text><polygon points="226,230 235,240 226,250" fill="#5a6270"/><rect x="240" y="140" width="200" height="200" fill="#f7f8fa" stroke="#c9ced6" stroke-width="1.5"/><rect x="240" y="272" width="200" height="68" fill="url(#soil)"/><rect x="258" y="272" width="34" height="52" fill="url(#conc)" stroke="#1d2433" stroke-width="1.2"/><rect x="388" y="272" width="34" height="52" fill="url(#conc)" stroke="#1d2433" stroke-width="1.2"/><rect x="250" y="260" width="180" height="14" fill="url(#conc)" stroke="#1d2433" stroke-width="1.2"/><rect x="262" y="251" width="26" height="9" fill="#e0662b"/><rect x="392" y="251" width="26" height="9" fill="#e0662b"/><circle cx="264" cy="164" r="19" fill="#ffffff" stroke="#1d2433" stroke-width="2.5"/><text x="264" y="174" font-family="DejaVu Sans, Arial, sans-serif" font-size="28" font-weight="bold" text-anchor="middle" fill="#1d2433">2</text><polygon points="446,230 455,240 446,250" fill="#5a6270"/><rect x="460" y="140" width="200" height="200" fill="#f7f8fa" stroke="#c9ced6" stroke-width="1.5"/><rect x="460" y="272" width="200" height="68" fill="url(#soil)"/><rect x="478" y="272" width="34" height="52" fill="url(#conc)" stroke="#1d2433" stroke-width="1.2"/><rect x="608" y="272" width="34" height="52" fill="url(#conc)" stroke="#1d2433" stroke-width="1.2"/><rect x="470" y="260" width="180" height="14" fill="url(#conc)" stroke="#1d2433" stroke-width="1.2"/><rect x="482" y="251" width="26" height="9" fill="#1747a6"/><rect x="612" y="251" width="26" height="9" fill="#1747a6"/><rect x="482" y="198" width="26" height="53" fill="url(#mas)" stroke="#1d2433" stroke-width="1.2"/><rect x="612" y="198" width="26" height="53" fill="url(#mas)" stroke="#1d2433" stroke-width="1.2"/><rect x="474" y="190" width="172" height="8" fill="#9aa3ad"/><circle cx="484" cy="164" r="19" fill="#ffffff" stroke="#1d2433" stroke-width="2.5"/><text x="484" y="174" font-family="DejaVu Sans, Arial, sans-serif" font-size="28" font-weight="bold" text-anchor="middle" fill="#1d2433">3</text><polygon points="666,230 675,240 666,250" fill="#5a6270"/><rect x="680" y="140" width="200" height="200" fill="#f7f8fa" stroke="#c9ced6" stroke-width="1.5"/><rect x="680" y="272" width="200" height="68" fill="url(#soil)"/><rect x="698" y="272" width="34" height="52" fill="url(#conc)" stroke="#1d2433" stroke-width="1.2"/><rect x="828" y="272" width="34" height="52" fill="url(#conc)" stroke="#1d2433" stroke-width="1.2"/><rect x="690" y="260" width="180" height="14" fill="url(#conc)" stroke="#1d2433" stroke-width="1.2"/><rect x="702" y="251" width="26" height="9" fill="#1747a6"/><rect x="832" y="251" width="26" height="9" fill="#1747a6"/><rect x="702" y="198" width="26" height="53" fill="url(#mas)" stroke="#1d2433" stroke-width="1.2"/><rect x="832" y="198" width="26" height="53" fill="url(#mas)" stroke="#1d2433" stroke-width="1.2"/><rect x="694" y="190" width="172" height="8" fill="#9aa3ad"/><rect x="728" y="251" width="104" height="9" fill="#e0662b"/><circle cx="704" cy="164" r="19" fill="#ffffff" stroke="#1d2433" stroke-width="2.5"/><text x="704" y="174" font-family="DejaVu Sans, Arial, sans-serif" font-size="28" font-weight="bold" text-anchor="middle" fill="#1d2433">4</text><circle cx="49" cy="370" r="19" fill="#ffffff" stroke="#1d2433" stroke-width="2.5"/><text x="49" y="380" font-family="DejaVu Sans, Arial, sans-serif" font-size="28" font-weight="bold" text-anchor="middle" fill="#1d2433">1</text><text x="82" y="380" font-family="DejaVu Sans, Arial, sans-serif" font-size="29" font-weight="normal" text-anchor="start" fill="#1d2433">kész aljzat</text><circle cx="49" cy="414" r="19" fill="#ffffff" stroke="#1d2433" stroke-width="2.5"/><text x="49" y="424" font-family="DejaVu Sans, Arial, sans-serif" font-size="28" font-weight="bold" text-anchor="middle" fill="#1d2433">2</text><text x="82" y="424" font-family="DejaVu Sans, Arial, sans-serif" font-size="29" font-weight="normal" text-anchor="start" fill="#1d2433">vízszintes falszigetelés a falak helyén</text><circle cx="49" cy="458" r="19" fill="#ffffff" stroke="#1d2433" stroke-width="2.5"/><text x="49" y="468" font-family="DejaVu Sans, Arial, sans-serif" font-size="28" font-weight="bold" text-anchor="middle" fill="#1d2433">3</text><text x="82" y="468" font-family="DejaVu Sans, Arial, sans-serif" font-size="29" font-weight="normal" text-anchor="start" fill="#1d2433">teherhordó falak (és födém)</text><circle cx="49" cy="502" r="19" fill="#ffffff" stroke="#1d2433" stroke-width="2.5"/><text x="49" y="512" font-family="DejaVu Sans, Arial, sans-serif" font-size="28" font-weight="bold" text-anchor="middle" fill="#1d2433">4</text><text x="82" y="512" font-family="DejaVu Sans, Arial, sans-serif" font-size="29" font-weight="normal" text-anchor="start" fill="#1d2433">padlószigetelés</text><line x1="0" y1="566" x2="900" y2="566" stroke="#c9ced6" stroke-width="2"/><text x="30" y="606" font-family="DejaVu Sans, Arial, sans-serif" font-size="31" font-weight="bold" text-anchor="start" fill="#1d2433">B) Pince teknőszigeteléssel</text><rect x="20" y="626" width="200" height="200" fill="#f7f8fa" stroke="#c9ced6" stroke-width="1.5"/><rect x="20" y="666" width="24" height="160" fill="url(#soil)"/><rect x="196" y="666" width="24" height="160" fill="url(#soil)"/><rect x="20" y="790" width="200" height="36" fill="url(#soil)"/><rect x="44" y="776" width="152" height="14" fill="url(#conc)" stroke="#1d2433" stroke-width="1.2"/><rect x="44" y="676" width="10" height="100" fill="#9aa3ad" stroke="#1d2433" stroke-width="1.2"/><rect x="186" y="676" width="10" height="100" fill="#9aa3ad" stroke="#1d2433" stroke-width="1.2"/><circle cx="44" cy="650" r="19" fill="#ffffff" stroke="#1d2433" stroke-width="2.5"/><text x="44" y="660" font-family="DejaVu Sans, Arial, sans-serif" font-size="28" font-weight="bold" text-anchor="middle" fill="#1d2433">1</text><polygon points="226,716 235,726 226,736" fill="#5a6270"/><rect x="240" y="626" width="200" height="200" fill="#f7f8fa" stroke="#c9ced6" stroke-width="1.5"/><rect x="240" y="666" width="24" height="160" fill="url(#soil)"/><rect x="416" y="666" width="24" height="160" fill="url(#soil)"/><rect x="240" y="790" width="200" height="36" fill="url(#soil)"/><rect x="264" y="776" width="152" height="14" fill="url(#conc)" stroke="#1d2433" stroke-width="1.2"/><rect x="264" y="676" width="10" height="100" fill="#9aa3ad" stroke="#1d2433" stroke-width="1.2"/><rect x="406" y="676" width="10" height="100" fill="#9aa3ad" stroke="#1d2433" stroke-width="1.2"/><rect x="274" y="676" width="9" height="100" fill="#e0662b"/><rect x="397" y="676" width="9" height="100" fill="#e0662b"/><rect x="274" y="767" width="39" height="9" fill="#e0662b"/><rect x="367" y="767" width="39" height="9" fill="#e0662b"/><circle cx="264" cy="650" r="19" fill="#ffffff" stroke="#1d2433" stroke-width="2.5"/><text x="264" y="660" font-family="DejaVu Sans, Arial, sans-serif" font-size="28" font-weight="bold" text-anchor="middle" fill="#1d2433">2</text><polygon points="446,716 455,726 446,736" fill="#5a6270"/><rect x="460" y="626" width="200" height="200" fill="#f7f8fa" stroke="#c9ced6" stroke-width="1.5"/><rect x="460" y="666" width="24" height="160" fill="url(#soil)"/><rect x="636" y="666" width="24" height="160" fill="url(#soil)"/><rect x="460" y="790" width="200" height="36" fill="url(#soil)"/><rect x="484" y="776" width="152" height="14" fill="url(#conc)" stroke="#1d2433" stroke-width="1.2"/><rect x="484" y="676" width="10" height="100" fill="#9aa3ad" stroke="#1d2433" stroke-width="1.2"/><rect x="626" y="676" width="10" height="100" fill="#9aa3ad" stroke="#1d2433" stroke-width="1.2"/><rect x="494" y="676" width="9" height="100" fill="#1747a6"/><rect x="617" y="676" width="9" height="100" fill="#1747a6"/><rect x="494" y="767" width="39" height="9" fill="#1747a6"/><rect x="587" y="767" width="39" height="9" fill="#1747a6"/><rect x="503" y="684" width="30" height="83" fill="url(#mas)" stroke="#1d2433" stroke-width="1.2"/><rect x="587" y="684" width="30" height="83" fill="url(#mas)" stroke="#1d2433" stroke-width="1.2"/><rect x="503" y="676" width="114" height="8" fill="#9aa3ad"/><circle cx="484" cy="650" r="19" fill="#ffffff" stroke="#1d2433" stroke-width="2.5"/><text x="484" y="660" font-family="DejaVu Sans, Arial, sans-serif" font-size="28" font-weight="bold" text-anchor="middle" fill="#1d2433">3</text><polygon points="666,716 675,726 666,736" fill="#5a6270"/><rect x="680" y="626" width="200" height="200" fill="#f7f8fa" stroke="#c9ced6" stroke-width="1.5"/><rect x="680" y="666" width="24" height="160" fill="url(#soil)"/><rect x="856" y="666" width="24" height="160" fill="url(#soil)"/><rect x="680" y="790" width="200" height="36" fill="url(#soil)"/><rect x="704" y="776" width="152" height="14" fill="url(#conc)" stroke="#1d2433" stroke-width="1.2"/><rect x="704" y="676" width="10" height="100" fill="#9aa3ad" stroke="#1d2433" stroke-width="1.2"/><rect x="846" y="676" width="10" height="100" fill="#9aa3ad" stroke="#1d2433" stroke-width="1.2"/><rect x="714" y="676" width="9" height="100" fill="#1747a6"/><rect x="837" y="676" width="9" height="100" fill="#1747a6"/><rect x="714" y="767" width="39" height="9" fill="#1747a6"/><rect x="807" y="767" width="39" height="9" fill="#1747a6"/><rect x="723" y="684" width="30" height="83" fill="url(#mas)" stroke="#1d2433" stroke-width="1.2"/><rect x="807" y="684" width="30" height="83" fill="url(#mas)" stroke="#1d2433" stroke-width="1.2"/><rect x="723" y="676" width="114" height="8" fill="#9aa3ad"/><rect x="753" y="767" width="54" height="9" fill="#e0662b"/><circle cx="704" cy="650" r="19" fill="#ffffff" stroke="#1d2433" stroke-width="2.5"/><text x="704" y="660" font-family="DejaVu Sans, Arial, sans-serif" font-size="28" font-weight="bold" text-anchor="middle" fill="#1d2433">4</text><circle cx="49" cy="856" r="19" fill="#ffffff" stroke="#1d2433" stroke-width="2.5"/><text x="49" y="866" font-family="DejaVu Sans, Arial, sans-serif" font-size="28" font-weight="bold" text-anchor="middle" fill="#1d2433">1</text><text x="82" y="866" font-family="DejaVu Sans, Arial, sans-serif" font-size="29" font-weight="normal" text-anchor="start" fill="#1d2433">kész aljzat és szigetelést tartó fal</text><circle cx="49" cy="900" r="19" fill="#ffffff" stroke="#1d2433" stroke-width="2.5"/><text x="49" y="910" font-family="DejaVu Sans, Arial, sans-serif" font-size="28" font-weight="bold" text-anchor="middle" fill="#1d2433">2</text><text x="82" y="910" font-family="DejaVu Sans, Arial, sans-serif" font-size="29" font-weight="normal" text-anchor="start" fill="#1d2433">függőleges és vízszintes falszigetelés</text><circle cx="49" cy="944" r="19" fill="#ffffff" stroke="#1d2433" stroke-width="2.5"/><text x="49" y="954" font-family="DejaVu Sans, Arial, sans-serif" font-size="28" font-weight="bold" text-anchor="middle" fill="#1d2433">3</text><text x="82" y="954" font-family="DejaVu Sans, Arial, sans-serif" font-size="29" font-weight="normal" text-anchor="start" fill="#1d2433">pincefal (és födém)</text><circle cx="49" cy="988" r="19" fill="#ffffff" stroke="#1d2433" stroke-width="2.5"/><text x="49" y="998" font-family="DejaVu Sans, Arial, sans-serif" font-size="28" font-weight="bold" text-anchor="middle" fill="#1d2433">4</text><text x="82" y="998" font-family="DejaVu Sans, Arial, sans-serif" font-size="29" font-weight="normal" text-anchor="start" fill="#1d2433">padlószigetelés</text><line x1="0" y1="1052" x2="900" y2="1052" stroke="#c9ced6" stroke-width="2"/><text x="30" y="1092" font-family="DejaVu Sans, Arial, sans-serif" font-size="31" font-weight="bold" text-anchor="start" fill="#1d2433">C) Pince szigetelést tartó fal nélkül</text><rect x="20" y="1112" width="200" height="200" fill="#f7f8fa" stroke="#c9ced6" stroke-width="1.5"/><rect x="20" y="1152" width="24" height="160" fill="url(#soil)"/><rect x="196" y="1152" width="24" height="160" fill="url(#soil)"/><rect x="20" y="1276" width="200" height="36" fill="url(#soil)"/><rect x="44" y="1262" width="152" height="14" fill="url(#conc)" stroke="#1d2433" stroke-width="1.2"/><circle cx="44" cy="1136" r="19" fill="#ffffff" stroke="#1d2433" stroke-width="2.5"/><text x="44" y="1146" font-family="DejaVu Sans, Arial, sans-serif" font-size="28" font-weight="bold" text-anchor="middle" fill="#1d2433">1</text><polygon points="226,1202 235,1212 226,1222" fill="#5a6270"/><rect x="240" y="1112" width="200" height="200" fill="#f7f8fa" stroke="#c9ced6" stroke-width="1.5"/><rect x="240" y="1152" width="24" height="160" fill="url(#soil)"/><rect x="416" y="1152" width="24" height="160" fill="url(#soil)"/><rect x="240" y="1276" width="200" height="36" fill="url(#soil)"/><rect x="264" y="1262" width="152" height="14" fill="url(#conc)" stroke="#1d2433" stroke-width="1.2"/><rect x="283" y="1253" width="30" height="9" fill="#e0662b"/><rect x="367" y="1253" width="30" height="9" fill="#e0662b"/><circle cx="264" cy="1136" r="19" fill="#ffffff" stroke="#1d2433" stroke-width="2.5"/><text x="264" y="1146" font-family="DejaVu Sans, Arial, sans-serif" font-size="28" font-weight="bold" text-anchor="middle" fill="#1d2433">2</text><polygon points="446,1202 455,1212 446,1222" fill="#5a6270"/><rect x="460" y="1112" width="200" height="200" fill="#f7f8fa" stroke="#c9ced6" stroke-width="1.5"/><rect x="460" y="1152" width="24" height="160" fill="url(#soil)"/><rect x="636" y="1152" width="24" height="160" fill="url(#soil)"/><rect x="460" y="1276" width="200" height="36" fill="url(#soil)"/><rect x="484" y="1262" width="152" height="14" fill="url(#conc)" stroke="#1d2433" stroke-width="1.2"/><rect x="503" y="1253" width="30" height="9" fill="#1747a6"/><rect x="587" y="1253" width="30" height="9" fill="#1747a6"/><rect x="503" y="1170" width="30" height="83" fill="url(#mas)" stroke="#1d2433" stroke-width="1.2"/><rect x="587" y="1170" width="30" height="83" fill="url(#mas)" stroke="#1d2433" stroke-width="1.2"/><rect x="503" y="1162" width="114" height="8" fill="#9aa3ad"/><circle cx="484" cy="1136" r="19" fill="#ffffff" stroke="#1d2433" stroke-width="2.5"/><text x="484" y="1146" font-family="DejaVu Sans, Arial, sans-serif" font-size="28" font-weight="bold" text-anchor="middle" fill="#1d2433">3</text><polygon points="666,1202 675,1212 666,1222" fill="#5a6270"/><rect x="680" y="1112" width="200" height="200" fill="#f7f8fa" stroke="#c9ced6" stroke-width="1.5"/><rect x="680" y="1152" width="24" height="160" fill="url(#soil)"/><rect x="856" y="1152" width="24" height="160" fill="url(#soil)"/><rect x="680" y="1276" width="200" height="36" fill="url(#soil)"/><rect x="704" y="1262" width="152" height="14" fill="url(#conc)" stroke="#1d2433" stroke-width="1.2"/><rect x="723" y="1253" width="30" height="9" fill="#1747a6"/><rect x="807" y="1253" width="30" height="9" fill="#1747a6"/><rect x="723" y="1170" width="30" height="83" fill="url(#mas)" stroke="#1d2433" stroke-width="1.2"/><rect x="807" y="1170" width="30" height="83" fill="url(#mas)" stroke="#1d2433" stroke-width="1.2"/><rect x="723" y="1162" width="114" height="8" fill="#9aa3ad"/><rect x="753" y="1253" width="54" height="9" fill="#e0662b"/><rect x="714" y="1170" width="9" height="92" fill="#e0662b"/><rect x="837" y="1170" width="9" height="92" fill="#e0662b"/><circle cx="704" cy="1136" r="19" fill="#ffffff" stroke="#1d2433" stroke-width="2.5"/><text x="704" y="1146" font-family="DejaVu Sans, Arial, sans-serif" font-size="28" font-weight="bold" text-anchor="middle" fill="#1d2433">4</text><circle cx="49" cy="1342" r="19" fill="#ffffff" stroke="#1d2433" stroke-width="2.5"/><text x="49" y="1352" font-family="DejaVu Sans, Arial, sans-serif" font-size="28" font-weight="bold" text-anchor="middle" fill="#1d2433">1</text><text x="82" y="1352" font-family="DejaVu Sans, Arial, sans-serif" font-size="29" font-weight="normal" text-anchor="start" fill="#1d2433">kész aljzat</text><circle cx="49" cy="1386" r="19" fill="#ffffff" stroke="#1d2433" stroke-width="2.5"/><text x="49" y="1396" font-family="DejaVu Sans, Arial, sans-serif" font-size="28" font-weight="bold" text-anchor="middle" fill="#1d2433">2</text><text x="82" y="1396" font-family="DejaVu Sans, Arial, sans-serif" font-size="29" font-weight="normal" text-anchor="start" fill="#1d2433">vízszintes falszigetelés</text><circle cx="49" cy="1430" r="19" fill="#ffffff" stroke="#1d2433" stroke-width="2.5"/><text x="49" y="1440" font-family="DejaVu Sans, Arial, sans-serif" font-size="28" font-weight="bold" text-anchor="middle" fill="#1d2433">3</text><text x="82" y="1440" font-family="DejaVu Sans, Arial, sans-serif" font-size="29" font-weight="normal" text-anchor="start" fill="#1d2433">pincefal (és födém)</text><circle cx="49" cy="1474" r="19" fill="#ffffff" stroke="#1d2433" stroke-width="2.5"/><text x="49" y="1484" font-family="DejaVu Sans, Arial, sans-serif" font-size="28" font-weight="bold" text-anchor="middle" fill="#1d2433">4</text><text x="82" y="1484" font-family="DejaVu Sans, Arial, sans-serif" font-size="29" font-weight="normal" text-anchor="start" fill="#1d2433">padló- és függőleges falszigetelés</text><line x1="0" y1="1538" x2="900" y2="1538" stroke="#c9ced6" stroke-width="2"/><rect x="30" y="1566" width="90" height="14" fill="#e0662b"/><text x="140" y="1588" font-family="DejaVu Sans, Arial, sans-serif" font-size="29" font-weight="normal" text-anchor="start" fill="#1d2433">ebben a lépésben készülő szigetelés</text><rect x="30" y="1610" width="90" height="14" fill="#1747a6"/><text x="140" y="1632" font-family="DejaVu Sans, Arial, sans-serif" font-size="29" font-weight="normal" text-anchor="start" fill="#1d2433">korábban elkészült szigetelés</text><rect x="30" y="1658" width="44" height="28" fill="url(#mas)" stroke="#1d2433" stroke-width="1.2"/><text x="140" y="1682" font-family="DejaVu Sans, Arial, sans-serif" font-size="29" font-weight="normal" text-anchor="start" fill="#1d2433">fal, pincefal</text><rect x="30" y="1706" width="44" height="28" fill="#9aa3ad" stroke="#1d2433" stroke-width="1.2"/><text x="140" y="1730" font-family="DejaVu Sans, Arial, sans-serif" font-size="29" font-weight="normal" text-anchor="start" fill="#1d2433">szigetelést tartó fal, födém</text><rect x="30" y="1754" width="44" height="28" fill="url(#conc)" stroke="#1d2433" stroke-width="1.2"/><text x="140" y="1778" font-family="DejaVu Sans, Arial, sans-serif" font-size="29" font-weight="normal" text-anchor="start" fill="#1d2433">beton aljzat, sávalap</text><text x="30" y="1838" font-family="DejaVu Sans, Arial, sans-serif" font-size="28" font-weight="normal" text-anchor="start" fill="#5a6270">Sematikus rajzok, nem méretarányosak.</text></svg>