<svg xmlns="http://www.w3.org/2000/svg" width="900" height="1893" viewBox="0 0 900 1893"><rect width="900" height="1893" rx="20" fill="#faf7ef"/><text x="450.0" y="52" text-anchor="middle" font-family="DejaVu Sans,sans-serif" font-size="36" font-weight="700" fill="#183d48">1848: a forradalomtól a háborúig</text><text x="450.0" y="94" text-anchor="middle" font-family="DejaVu Sans,sans-serif" font-size="29" font-weight="400" fill="#183d48">Magyarország, 1848. március–szeptember</text><text x="450.0" y="134" text-anchor="middle" font-family="DejaVu Sans,sans-serif" font-size="28" font-weight="400" fill="#4d6670">napra arányos időtengely</text><rect x="40" y="160" width="26" height="26" rx="5" fill="#2f6f86"/><text x="78" y="183" text-anchor="start" font-family="DejaVu Sans,sans-serif" font-size="28" font-weight="400" fill="#4d6670">forradalom és törvények</text><rect x="480" y="160" width="26" height="26" rx="5" fill="#3d7a3a"/><text x="518" y="183" text-anchor="start" font-family="DejaVu Sans,sans-serif" font-size="28" font-weight="400" fill="#4d6670">honvédelem</text><rect x="40" y="204" width="26" height="26" rx="5" fill="#a33a2c"/><text x="78" y="227" text-anchor="start" font-family="DejaVu Sans,sans-serif" font-size="28" font-weight="400" fill="#4d6670">fegyveres harc</text><circle cx="493" cy="217" r="11" fill="#4d6670"/><text x="518" y="227" text-anchor="start" font-family="DejaVu Sans,sans-serif" font-size="28" font-weight="400" fill="#4d6670">pontos nap</text><rect x="43" y="245" width="20" height="32" rx="5" fill="#ffffff" stroke="#4d6670" stroke-width="2.5" stroke-dasharray="6 4"/><text x="78" y="271" text-anchor="start" font-family="DejaVu Sans,sans-serif" font-size="28" font-weight="400" fill="#4d6670">csak a hónap vagy a hónaprész ismert</text><path d="M150,320.0 L150,1538.3999999999999" stroke="#315663" stroke-width="3"/><path d="M138,330.0 L162,330.0" stroke="#315663" stroke-width="2"/><text x="134" y="426.8" text-anchor="end" font-family="DejaVu Sans,sans-serif" font-size="28" font-weight="700" fill="#4d6670">márc.</text><path d="M138,503.6 L162,503.6" stroke="#315663" stroke-width="2"/><text x="134" y="597.6" text-anchor="end" font-family="DejaVu Sans,sans-serif" font-size="28" font-weight="700" fill="#4d6670">ápr.</text><path d="M138,671.6 L162,671.6" stroke="#315663" stroke-width="2"/><text x="134" y="768.4" text-anchor="end" font-family="DejaVu Sans,sans-serif" font-size="28" font-weight="700" fill="#4d6670">máj.</text><path d="M138,845.2 L162,845.2" stroke="#315663" stroke-width="2"/><text x="134" y="939.2" text-anchor="end" font-family="DejaVu Sans,sans-serif" font-size="28" font-weight="700" fill="#4d6670">jún.</text><path d="M138,1013.2 L162,1013.2" stroke="#315663" stroke-width="2"/><text x="134" y="1110.0" text-anchor="end" font-family="DejaVu Sans,sans-serif" font-size="28" font-weight="700" fill="#4d6670">júl.</text><path d="M138,1186.8 L162,1186.8" stroke="#315663" stroke-width="2"/><text x="134" y="1283.6" text-anchor="end" font-family="DejaVu Sans,sans-serif" font-size="28" font-weight="700" fill="#4d6670">aug.</text><path d="M138,1360.4 L162,1360.4" stroke="#315663" stroke-width="2"/><text x="134" y="1454.4" text-anchor="end" font-family="DejaVu Sans,sans-serif" font-size="28" font-weight="700" fill="#4d6670">szept.</text><path d="M138,1528.4 L162,1528.4" stroke="#315663" stroke-width="2"/><circle cx="150" cy="408.4" r="11" fill="#2f6f86" stroke="#fff" stroke-width="3"/><circle cx="150" cy="559.6" r="11" fill="#2f6f86" stroke="#fff" stroke-width="3"/><rect x="164" y="845.2" width="22" height="162.4" rx="6" fill="#f4e4d7" stroke="#a33a2c" stroke-width="2.5" stroke-dasharray="6 4"/><circle cx="150" cy="934.8" r="11" fill="#3d7a3a" stroke="#fff" stroke-width="3"/><circle cx="150" cy="1069.2" r="11" fill="#3d7a3a" stroke="#fff" stroke-width="3"/><circle cx="150" cy="1214.8" r="11" fill="#3d7a3a" stroke="#fff" stroke-width="3"/><circle cx="150" cy="1416.4" r="11" fill="#a33a2c" stroke="#fff" stroke-width="3"/><rect x="164" y="1472.4" width="22" height="50.4" rx="6" fill="#e3efdf" stroke="#3d7a3a" stroke-width="2.5" stroke-dasharray="6 4"/><circle cx="150" cy="1517.2" r="11" fill="#a33a2c" stroke="#fff" stroke-width="3"/><path d="M162,408.4 L209,408.4" stroke="#2f6f86" stroke-width="2.5" fill="none"/><rect x="215" y="360.4" width="670" height="96" rx="10" fill="#e4edf0" stroke="#2f6f86" stroke-width="2"/><rect x="215" y="360.4" width="10" height="96" rx="4" fill="#2f6f86"/><text x="241" y="402.4" text-anchor="start" font-family="DejaVu Sans,sans-serif" font-size="29" font-weight="700" fill="#2f6f86">márc. 15.</text><text x="241" y="439.4" text-anchor="start" font-family="DejaVu Sans,sans-serif" font-size="29" font-weight="400" fill="#183d48">Forradalom Pesten</text><path d="M162,559.6 L209,559.6" stroke="#2f6f86" stroke-width="2.5" fill="none"/><rect x="215" y="493.1" width="670" height="133" rx="10" fill="#e4edf0" stroke="#2f6f86" stroke-width="2"/><rect x="215" y="493.1" width="10" height="133" rx="4" fill="#2f6f86"/><text x="241" y="535.1" text-anchor="start" font-family="DejaVu Sans,sans-serif" font-size="29" font-weight="700" fill="#2f6f86">ápr. 11.</text><text x="241" y="572.1" text-anchor="start" font-family="DejaVu Sans,sans-serif" font-size="29" font-weight="400" fill="#183d48">V. Ferdinánd szentesíti</text><text x="241" y="609.1" text-anchor="start" font-family="DejaVu Sans,sans-serif" font-size="29" font-weight="400" fill="#183d48">az áprilisi törvényeket</text><path d="M186,926.4 L209,926.4" stroke="#a33a2c" stroke-width="2.5" fill="none"/><rect x="215" y="859.9" width="670" height="133" rx="10" fill="#f4e4d7" stroke="#a33a2c" stroke-width="2"/><rect x="215" y="859.9" width="10" height="133" rx="4" fill="#a33a2c"/><text x="241" y="901.9" text-anchor="start" font-family="DejaVu Sans,sans-serif" font-size="29" font-weight="700" fill="#a33a2c">június</text><text x="241" y="938.9" text-anchor="start" font-family="DejaVu Sans,sans-serif" font-size="29" font-weight="400" fill="#183d48">Fegyveres szerb felkelés</text><text x="241" y="975.9" text-anchor="start" font-family="DejaVu Sans,sans-serif" font-size="29" font-weight="400" fill="#183d48">a Délvidéken</text><path d="M162,934.8 L209,1071.4" stroke="#3d7a3a" stroke-width="2.5" fill="none"/><rect x="215" y="1004.9" width="670" height="133" rx="10" fill="#e3efdf" stroke="#3d7a3a" stroke-width="2"/><rect x="215" y="1004.9" width="10" height="133" rx="4" fill="#3d7a3a"/><text x="241" y="1046.9" text-anchor="start" font-family="DejaVu Sans,sans-serif" font-size="29" font-weight="700" fill="#3d7a3a">jún. 17.</text><text x="241" y="1083.9" text-anchor="start" font-family="DejaVu Sans,sans-serif" font-size="29" font-weight="400" fill="#183d48">Kossuth szerződést köt</text><text x="241" y="1120.9" text-anchor="start" font-family="DejaVu Sans,sans-serif" font-size="29" font-weight="400" fill="#183d48">önálló magyar bankjegyek kiadására</text><path d="M162,1069.2 L209,1216.4" stroke="#3d7a3a" stroke-width="2.5" fill="none"/><rect x="215" y="1149.9" width="670" height="133" rx="10" fill="#e3efdf" stroke="#3d7a3a" stroke-width="2"/><rect x="215" y="1149.9" width="10" height="133" rx="4" fill="#3d7a3a"/><text x="241" y="1191.9" text-anchor="start" font-family="DejaVu Sans,sans-serif" font-size="29" font-weight="700" fill="#3d7a3a">júl. 11.</text><text x="241" y="1228.9" text-anchor="start" font-family="DejaVu Sans,sans-serif" font-size="29" font-weight="400" fill="#183d48">Az országgyűlés megszavazza</text><text x="241" y="1265.9" text-anchor="start" font-family="DejaVu Sans,sans-serif" font-size="29" font-weight="400" fill="#183d48">a 200 000 újoncot és a pénzt</text><path d="M162,1214.8 L209,1342.9" stroke="#3d7a3a" stroke-width="2.5" fill="none"/><rect x="215" y="1294.9" width="670" height="96" rx="10" fill="#e3efdf" stroke="#3d7a3a" stroke-width="2"/><rect x="215" y="1294.9" width="10" height="96" rx="4" fill="#3d7a3a"/><text x="241" y="1336.9" text-anchor="start" font-family="DejaVu Sans,sans-serif" font-size="29" font-weight="700" fill="#3d7a3a">aug. 6.</text><text x="241" y="1373.9" text-anchor="start" font-family="DejaVu Sans,sans-serif" font-size="29" font-weight="400" fill="#183d48">Megjelenik az első Kossuth-bankó</text><path d="M162,1416.4 L209,1469.4" stroke="#a33a2c" stroke-width="2.5" fill="none"/><rect x="215" y="1402.9" width="670" height="133" rx="10" fill="#f4e4d7" stroke="#a33a2c" stroke-width="2"/><rect x="215" y="1402.9" width="10" height="133" rx="4" fill="#a33a2c"/><text x="241" y="1444.9" text-anchor="start" font-family="DejaVu Sans,sans-serif" font-size="29" font-weight="700" fill="#a33a2c">szept. 11.</text><text x="241" y="1481.9" text-anchor="start" font-family="DejaVu Sans,sans-serif" font-size="29" font-weight="400" fill="#183d48">Jelačić horvát bán</text><text x="241" y="1518.9" text-anchor="start" font-family="DejaVu Sans,sans-serif" font-size="29" font-weight="400" fill="#183d48">megtámadja Magyarországot</text><path d="M186,1497.6 L209,1614.4" stroke="#3d7a3a" stroke-width="2.5" fill="none"/><rect x="215" y="1547.9" width="670" height="133" rx="10" fill="#e3efdf" stroke="#3d7a3a" stroke-width="2"/><rect x="215" y="1547.9" width="10" height="133" rx="4" fill="#3d7a3a"/><text x="241" y="1589.9" text-anchor="start" font-family="DejaVu Sans,sans-serif" font-size="29" font-weight="700" fill="#3d7a3a">szept. vége</text><text x="241" y="1626.9" text-anchor="start" font-family="DejaVu Sans,sans-serif" font-size="29" font-weight="400" fill="#183d48">Kossuth toborzóútja</text><text x="241" y="1663.9" text-anchor="start" font-family="DejaVu Sans,sans-serif" font-size="29" font-weight="400" fill="#183d48">az alföldi mezővárosokban</text><path d="M162,1517.2 L209,1777.9" stroke="#a33a2c" stroke-width="2.5" fill="none"/><rect x="215" y="1692.9" width="670" height="170" rx="10" fill="#f4e4d7" stroke="#a33a2c" stroke-width="2"/><rect x="215" y="1692.9" width="10" height="170" rx="4" fill="#a33a2c"/><text x="241" y="1734.9" text-anchor="start" font-family="DejaVu Sans,sans-serif" font-size="29" font-weight="700" fill="#a33a2c">szept. 29.</text><text x="241" y="1771.9" text-anchor="start" font-family="DejaVu Sans,sans-serif" font-size="29" font-weight="400" fill="#183d48">Pákozdi csata: Móga János</text><text x="241" y="1808.9" text-anchor="start" font-family="DejaVu Sans,sans-serif" font-size="29" font-weight="400" fill="#183d48">megállítja Jelačićot,</text><text x="241" y="1845.9" text-anchor="start" font-family="DejaVu Sans,sans-serif" font-size="29" font-weight="400" fill="#183d48">aki Bécs felé vonul vissza</text></svg>