<svg xmlns="http://www.w3.org/2000/svg" width="900" height="1340" viewBox="0 0 900 1340"><title>Nedvességokozók a talajban: talajpára, talajnedvesség, talajvíz</title><defs>
<pattern id="soil" width="22" height="22" patternUnits="userSpaceOnUse">
<rect width="22" height="22" fill="#efe3cf"/>
<path d="M2 20 L8 14 M13 9 L19 3" stroke="#8a6a45" stroke-width="1.6"/>
<circle cx="16" cy="17" r="1.6" fill="#8a6a45"/><circle cx="5" cy="6" r="1.3" fill="#8a6a45"/>
</pattern>
<pattern id="conc" width="20" height="20" patternUnits="userSpaceOnUse" patternTransform="rotate(45)">
<rect width="20" height="20" fill="#dfe1e4"/>
<line x1="0" y1="0" x2="0" y2="20" stroke="#6b7078" stroke-width="1.5"/>
<line x1="10" y1="4" x2="10" y2="10" stroke="#6b7078" stroke-width="1.5"/>
</pattern>
<pattern id="mas" width="14" height="14" patternUnits="userSpaceOnUse" patternTransform="rotate(45)">
<rect width="14" height="14" fill="#f6d9cc"/>
<line x1="0" y1="0" x2="0" y2="14" stroke="#a5462f" stroke-width="1.6"/>
</pattern>
</defs><rect width="900" height="1340" fill="#ffffff"/><text x="30" y="50" font-family="DejaVu Sans, Arial, sans-serif" font-size="34" font-weight="bold" text-anchor="start" fill="#1d2433">Nedvességokozók a talajban</text><rect x="30" y="140" width="370" height="202" fill="#f3ead9"/><rect x="30" y="342" width="370" height="38" fill="#d6e5f8"/><circle cx="60" cy="165" r="22" fill="#dcc9a6" stroke="#8a6a45" stroke-width="2"/><circle cx="125" cy="185" r="22" fill="#dcc9a6" stroke="#8a6a45" stroke-width="2"/><circle cx="195" cy="160" r="22" fill="#dcc9a6" stroke="#8a6a45" stroke-width="2"/><circle cx="270" cy="180" r="22" fill="#dcc9a6" stroke="#8a6a45" stroke-width="2"/><circle cx="340" cy="162" r="22" fill="#dcc9a6" stroke="#8a6a45" stroke-width="2"/><circle cx="85" cy="235" r="22" fill="#dcc9a6" stroke="#8a6a45" stroke-width="2"/><circle cx="160" cy="250" r="22" fill="#dcc9a6" stroke="#8a6a45" stroke-width="2"/><circle cx="235" cy="230" r="22" fill="#dcc9a6" stroke="#8a6a45" stroke-width="2"/><circle cx="310" cy="250" r="22" fill="#dcc9a6" stroke="#8a6a45" stroke-width="2"/><circle cx="375" cy="220" r="22" fill="#dcc9a6" stroke="#8a6a45" stroke-width="2"/><circle cx="55" cy="300" r="22" fill="#dcc9a6" stroke="#8a6a45" stroke-width="2"/><circle cx="125" cy="315" r="22" fill="#dcc9a6" stroke="#8a6a45" stroke-width="2"/><circle cx="200" cy="300" r="22" fill="#dcc9a6" stroke="#8a6a45" stroke-width="2"/><circle cx="275" cy="318" r="22" fill="#dcc9a6" stroke="#8a6a45" stroke-width="2"/><circle cx="350" cy="290" r="22" fill="#dcc9a6" stroke="#8a6a45" stroke-width="2"/><path d="M92 336 q8 -9 0 -18 q-8 -9 0 -18 q8 -9 0 -18 q-8 -9 0 -18 q8 -9 0 -18 q-8 -9 0 -18 q8 -9 0 -18 q-8 -9 0 -18 q8 -9 0 -18" fill="none" stroke="#6b7785" stroke-width="3.5" stroke-linecap="butt" stroke-linejoin="round"/><polygon points="92,174 84,186 100,186" fill="#6b7785"/><path d="M165 336 q8 -9 0 -18 q-8 -9 0 -18 q8 -9 0 -18 q-8 -9 0 -18 q8 -9 0 -18 q-8 -9 0 -18 q8 -9 0 -18 q-8 -9 0 -18 q8 -9 0 -18" fill="none" stroke="#6b7785" stroke-width="3.5" stroke-linecap="butt" stroke-linejoin="round"/><polygon points="165,174 157,186 173,186" fill="#6b7785"/><path d="M240 336 q8 -9 0 -18 q-8 -9 0 -18 q8 -9 0 -18 q-8 -9 0 -18 q8 -9 0 -18 q-8 -9 0 -18 q8 -9 0 -18 q-8 -9 0 -18 q8 -9 0 -18" fill="none" stroke="#6b7785" stroke-width="3.5" stroke-linecap="butt" stroke-linejoin="round"/><polygon points="240,174 232,186 248,186" fill="#6b7785"/><path d="M312 336 q8 -9 0 -18 q-8 -9 0 -18 q8 -9 0 -18 q-8 -9 0 -18 q8 -9 0 -18 q-8 -9 0 -18 q8 -9 0 -18 q-8 -9 0 -18 q8 -9 0 -18" fill="none" stroke="#6b7785" stroke-width="3.5" stroke-linecap="butt" stroke-linejoin="round"/><polygon points="312,174 304,186 320,186" fill="#6b7785"/><circle cx="392" cy="170" r="6" fill="#2f6fd0"/><circle cx="390" cy="190" r="4" fill="#2f6fd0"/><circle cx="392" cy="225" r="6" fill="#2f6fd0"/><circle cx="390" cy="245" r="4" fill="#2f6fd0"/><circle cx="392" cy="280" r="6" fill="#2f6fd0"/><circle cx="390" cy="300" r="4" fill="#2f6fd0"/><text x="38" y="126" font-family="DejaVu Sans, Arial, sans-serif" font-size="28" font-weight="normal" text-anchor="start" fill="#4f5b66">pára</text><text x="392" y="126" font-family="DejaVu Sans, Arial, sans-serif" font-size="28" font-weight="normal" text-anchor="end" fill="#2f6fd0">lecsapódás</text><line x1="30" y1="342" x2="400" y2="342" stroke="#2f6fd0" stroke-width="3" stroke-dasharray="12 7"/><text x="38" y="370" font-family="DejaVu Sans, Arial, sans-serif" font-size="26" font-weight="normal" text-anchor="start" fill="#0d3c8c">talajvízszint</text><rect x="400" y="105" width="32" height="275" fill="url(#conc)" stroke="#1d2433" stroke-width="2"/><line x1="30" y1="140" x2="400" y2="140" stroke="#1d2433" stroke-width="3"/><text x="465" y="140" font-family="DejaVu Sans, Arial, sans-serif" font-size="32" font-weight="bold" text-anchor="start" fill="#1d2433">Talajpára</text><text x="465" y="185" font-family="DejaVu Sans, Arial, sans-serif" font-size="28" font-weight="normal" text-anchor="start" fill="#1d2433">mély talajvízből párolog,</text><text x="465" y="223" font-family="DejaVu Sans, Arial, sans-serif" font-size="28" font-weight="normal" text-anchor="start" fill="#1d2433">a falon lecsapódhat,</text><text x="465" y="261" font-family="DejaVu Sans, Arial, sans-serif" font-size="28" font-weight="normal" text-anchor="start" fill="#1d2433">nyomást nem fejt ki</text><line x1="465" y1="316" x2="491.8" y2="316.0" stroke="#1d2433" stroke-width="3.5"/><polygon points="499,316 488.1946347717679,321.21958640933474 488.1946347717679,310.78041359066526" fill="#1d2433"/><text x="511" y="326" font-family="DejaVu Sans, Arial, sans-serif" font-size="28" font-weight="bold" text-anchor="start" fill="#1d2433">talajpára elleni</text><text x="511" y="362" font-family="DejaVu Sans, Arial, sans-serif" font-size="28" font-weight="bold" text-anchor="start" fill="#1d2433">szigetelés</text><line x1="0" y1="440" x2="900" y2="440" stroke="#c9ced6" stroke-width="2"/><rect x="30" y="495" width="370" height="215" fill="url(#soil)"/><rect x="30" y="710" width="370" height="25" fill="#d6e5f8"/><circle cx="52" cy="517" r="11" fill="#e2cfae" stroke="#2f6fd0" stroke-width="4.5"/><circle cx="72" cy="559" r="11" fill="#e2cfae" stroke="#2f6fd0" stroke-width="4.5"/><circle cx="52" cy="601" r="11" fill="#e2cfae" stroke="#2f6fd0" stroke-width="4.5"/><circle cx="72" cy="643" r="11" fill="#e2cfae" stroke="#2f6fd0" stroke-width="4.5"/><circle cx="52" cy="685" r="11" fill="#e2cfae" stroke="#2f6fd0" stroke-width="4.5"/><circle cx="92" cy="517" r="11" fill="#e2cfae" stroke="#2f6fd0" stroke-width="4.5"/><circle cx="112" cy="559" r="11" fill="#e2cfae" stroke="#2f6fd0" stroke-width="4.5"/><circle cx="92" cy="601" r="11" fill="#e2cfae" stroke="#2f6fd0" stroke-width="4.5"/><circle cx="112" cy="643" r="11" fill="#e2cfae" stroke="#2f6fd0" stroke-width="4.5"/><circle cx="92" cy="685" r="11" fill="#e2cfae" stroke="#2f6fd0" stroke-width="4.5"/><circle cx="132" cy="517" r="11" fill="#e2cfae" stroke="#2f6fd0" stroke-width="4.5"/><circle cx="152" cy="559" r="11" fill="#e2cfae" stroke="#2f6fd0" stroke-width="4.5"/><circle cx="132" cy="601" r="11" fill="#e2cfae" stroke="#2f6fd0" stroke-width="4.5"/><circle cx="152" cy="643" r="11" fill="#e2cfae" stroke="#2f6fd0" stroke-width="4.5"/><circle cx="132" cy="685" r="11" fill="#e2cfae" stroke="#2f6fd0" stroke-width="4.5"/><circle cx="172" cy="517" r="11" fill="#e2cfae" stroke="#2f6fd0" stroke-width="4.5"/><circle cx="192" cy="559" r="11" fill="#e2cfae" stroke="#2f6fd0" stroke-width="4.5"/><circle cx="172" cy="601" r="11" fill="#e2cfae" stroke="#2f6fd0" stroke-width="4.5"/><circle cx="192" cy="643" r="11" fill="#e2cfae" stroke="#2f6fd0" stroke-width="4.5"/><circle cx="172" cy="685" r="11" fill="#e2cfae" stroke="#2f6fd0" stroke-width="4.5"/><circle cx="212" cy="517" r="11" fill="#e2cfae" stroke="#2f6fd0" stroke-width="4.5"/><circle cx="232" cy="559" r="11" fill="#e2cfae" stroke="#2f6fd0" stroke-width="4.5"/><circle cx="212" cy="601" r="11" fill="#e2cfae" stroke="#2f6fd0" stroke-width="4.5"/><circle cx="232" cy="643" r="11" fill="#e2cfae" stroke="#2f6fd0" stroke-width="4.5"/><circle cx="212" cy="685" r="11" fill="#e2cfae" stroke="#2f6fd0" stroke-width="4.5"/><circle cx="252" cy="517" r="11" fill="#e2cfae" stroke="#2f6fd0" stroke-width="4.5"/><circle cx="272" cy="559" r="11" fill="#e2cfae" stroke="#2f6fd0" stroke-width="4.5"/><circle cx="252" cy="601" r="11" fill="#e2cfae" stroke="#2f6fd0" stroke-width="4.5"/><circle cx="272" cy="643" r="11" fill="#e2cfae" stroke="#2f6fd0" stroke-width="4.5"/><circle cx="252" cy="685" r="11" fill="#e2cfae" stroke="#2f6fd0" stroke-width="4.5"/><circle cx="292" cy="517" r="11" fill="#e2cfae" stroke="#2f6fd0" stroke-width="4.5"/><circle cx="312" cy="559" r="11" fill="#e2cfae" stroke="#2f6fd0" stroke-width="4.5"/><circle cx="292" cy="601" r="11" fill="#e2cfae" stroke="#2f6fd0" stroke-width="4.5"/><circle cx="312" cy="643" r="11" fill="#e2cfae" stroke="#2f6fd0" stroke-width="4.5"/><circle cx="292" cy="685" r="11" fill="#e2cfae" stroke="#2f6fd0" stroke-width="4.5"/><circle cx="332" cy="517" r="11" fill="#e2cfae" stroke="#2f6fd0" stroke-width="4.5"/><circle cx="352" cy="559" r="11" fill="#e2cfae" stroke="#2f6fd0" stroke-width="4.5"/><circle cx="332" cy="601" r="11" fill="#e2cfae" stroke="#2f6fd0" stroke-width="4.5"/><circle cx="352" cy="643" r="11" fill="#e2cfae" stroke="#2f6fd0" stroke-width="4.5"/><circle cx="332" cy="685" r="11" fill="#e2cfae" stroke="#2f6fd0" stroke-width="4.5"/><circle cx="372" cy="517" r="11" fill="#e2cfae" stroke="#2f6fd0" stroke-width="4.5"/><circle cx="372" cy="601" r="11" fill="#e2cfae" stroke="#2f6fd0" stroke-width="4.5"/><circle cx="372" cy="685" r="11" fill="#e2cfae" stroke="#2f6fd0" stroke-width="4.5"/><line x1="70" y1="450" x2="70.0" y2="561.6" stroke="#2f6fd0" stroke-width="4.5"/><polygon points="70,570 63.91048252244278,557.3937405670625 76.08951747755722,557.3937405670625" fill="#2f6fd0"/><line x1="360" y1="450" x2="360.0" y2="561.6" stroke="#2f6fd0" stroke-width="4.5"/><polygon points="360,570 353.91048252244275,557.3937405670625 366.08951747755725,557.3937405670625" fill="#2f6fd0"/><line x1="155" y1="706" x2="155.0" y2="598.4" stroke="#2f6fd0" stroke-width="4.5"/><polygon points="155,590 161.08951747755722,602.6062594329375 148.91048252244278,602.6062594329375" fill="#2f6fd0"/><line x1="275" y1="706" x2="275.0" y2="598.4" stroke="#2f6fd0" stroke-width="4.5"/><polygon points="275,590 281.08951747755725,602.6062594329375 268.91048252244275,602.6062594329375" fill="#2f6fd0"/><text x="105" y="481" font-family="DejaVu Sans, Arial, sans-serif" font-size="28" font-weight="normal" text-anchor="start" fill="#2f6fd0">beszivárgás</text><text x="38" y="769" font-family="DejaVu Sans, Arial, sans-serif" font-size="28" font-weight="normal" text-anchor="start" fill="#2f6fd0">felszívódás a talajvízből</text><line x1="30" y1="710" x2="400" y2="710" stroke="#2f6fd0" stroke-width="3" stroke-dasharray="12 7"/><rect x="400" y="460" width="32" height="275" fill="url(#conc)" stroke="#1d2433" stroke-width="2"/><line x1="30" y1="495" x2="400" y2="495" stroke="#1d2433" stroke-width="3"/><text x="465" y="495" font-family="DejaVu Sans, Arial, sans-serif" font-size="32" font-weight="bold" text-anchor="start" fill="#1d2433">Talajnedvesség</text><text x="465" y="540" font-family="DejaVu Sans, Arial, sans-serif" font-size="28" font-weight="normal" text-anchor="start" fill="#1d2433">a szemcsékhez tapadó víz:</text><text x="465" y="578" font-family="DejaVu Sans, Arial, sans-serif" font-size="28" font-weight="normal" text-anchor="start" fill="#1d2433">beszivárog, felszívódik,</text><text x="465" y="616" font-family="DejaVu Sans, Arial, sans-serif" font-size="28" font-weight="normal" text-anchor="start" fill="#1d2433">nyomást nem fejt ki</text><line x1="465" y1="671" x2="491.8" y2="671.0" stroke="#1d2433" stroke-width="3.5"/><polygon points="499,671 488.1946347717679,676.2195864093347 488.1946347717679,665.7804135906653" fill="#1d2433"/><text x="511" y="681" font-family="DejaVu Sans, Arial, sans-serif" font-size="28" font-weight="bold" text-anchor="start" fill="#1d2433">talajnedvesség elleni</text><text x="511" y="717" font-family="DejaVu Sans, Arial, sans-serif" font-size="28" font-weight="bold" text-anchor="start" fill="#1d2433">szigetelés</text><line x1="0" y1="795" x2="900" y2="795" stroke="#c9ced6" stroke-width="2"/><rect x="30" y="850" width="370" height="75" fill="url(#soil)"/><rect x="30" y="925" width="370" height="165" fill="#d6e5f8"/><circle cx="52" cy="947" r="11" fill="#e2cfae" stroke="#8a6a45" stroke-width="1.5"/><circle cx="72" cy="985" r="11" fill="#e2cfae" stroke="#8a6a45" stroke-width="1.5"/><circle cx="52" cy="1023" r="11" fill="#e2cfae" stroke="#8a6a45" stroke-width="1.5"/><circle cx="72" cy="1061" r="11" fill="#e2cfae" stroke="#8a6a45" stroke-width="1.5"/><circle cx="92" cy="947" r="11" fill="#e2cfae" stroke="#8a6a45" stroke-width="1.5"/><circle cx="112" cy="985" r="11" fill="#e2cfae" stroke="#8a6a45" stroke-width="1.5"/><circle cx="92" cy="1023" r="11" fill="#e2cfae" stroke="#8a6a45" stroke-width="1.5"/><circle cx="112" cy="1061" r="11" fill="#e2cfae" stroke="#8a6a45" stroke-width="1.5"/><circle cx="132" cy="947" r="11" fill="#e2cfae" stroke="#8a6a45" stroke-width="1.5"/><circle cx="152" cy="985" r="11" fill="#e2cfae" stroke="#8a6a45" stroke-width="1.5"/><circle cx="132" cy="1023" r="11" fill="#e2cfae" stroke="#8a6a45" stroke-width="1.5"/><circle cx="152" cy="1061" r="11" fill="#e2cfae" stroke="#8a6a45" stroke-width="1.5"/><circle cx="172" cy="947" r="11" fill="#e2cfae" stroke="#8a6a45" stroke-width="1.5"/><circle cx="192" cy="985" r="11" fill="#e2cfae" stroke="#8a6a45" stroke-width="1.5"/><circle cx="172" cy="1023" r="11" fill="#e2cfae" stroke="#8a6a45" stroke-width="1.5"/><circle cx="192" cy="1061" r="11" fill="#e2cfae" stroke="#8a6a45" stroke-width="1.5"/><circle cx="212" cy="947" r="11" fill="#e2cfae" stroke="#8a6a45" stroke-width="1.5"/><circle cx="232" cy="985" r="11" fill="#e2cfae" stroke="#8a6a45" stroke-width="1.5"/><circle cx="212" cy="1023" r="11" fill="#e2cfae" stroke="#8a6a45" stroke-width="1.5"/><circle cx="232" cy="1061" r="11" fill="#e2cfae" stroke="#8a6a45" stroke-width="1.5"/><circle cx="252" cy="947" r="11" fill="#e2cfae" stroke="#8a6a45" stroke-width="1.5"/><circle cx="272" cy="985" r="11" fill="#e2cfae" stroke="#8a6a45" stroke-width="1.5"/><circle cx="252" cy="1023" r="11" fill="#e2cfae" stroke="#8a6a45" stroke-width="1.5"/><circle cx="272" cy="1061" r="11" fill="#e2cfae" stroke="#8a6a45" stroke-width="1.5"/><circle cx="292" cy="947" r="11" fill="#e2cfae" stroke="#8a6a45" stroke-width="1.5"/><circle cx="312" cy="985" r="11" fill="#e2cfae" stroke="#8a6a45" stroke-width="1.5"/><circle cx="292" cy="1023" r="11" fill="#e2cfae" stroke="#8a6a45" stroke-width="1.5"/><circle cx="312" cy="1061" r="11" fill="#e2cfae" stroke="#8a6a45" stroke-width="1.5"/><circle cx="332" cy="947" r="11" fill="#e2cfae" stroke="#8a6a45" stroke-width="1.5"/><circle cx="352" cy="985" r="11" fill="#e2cfae" stroke="#8a6a45" stroke-width="1.5"/><circle cx="332" cy="1023" r="11" fill="#e2cfae" stroke="#8a6a45" stroke-width="1.5"/><circle cx="352" cy="1061" r="11" fill="#e2cfae" stroke="#8a6a45" stroke-width="1.5"/><circle cx="372" cy="947" r="11" fill="#e2cfae" stroke="#8a6a45" stroke-width="1.5"/><circle cx="372" cy="1023" r="11" fill="#e2cfae" stroke="#8a6a45" stroke-width="1.5"/><polygon points="400,925 400,1090 230,1090" fill="#2f6fd0" fill-opacity="0.28" stroke="#2f6fd0" stroke-width="2"/><line x1="347.6363636363636" y1="970" x2="389.6" y2="970.0" stroke="#0d3c8c" stroke-width="5"/><polygon points="398,970 385.39374056706254,976.0895174775573 385.39374056706254,963.9104825224427" fill="#0d3c8c"/><line x1="301.27272727272725" y1="1015" x2="389.6" y2="1015.0" stroke="#0d3c8c" stroke-width="5"/><polygon points="398,1015 385.39374056706254,1021.0895174775573 385.39374056706254,1008.9104825224427" fill="#0d3c8c"/><line x1="254.90909090909088" y1="1060" x2="389.6" y2="1060.0" stroke="#0d3c8c" stroke-width="5"/><polygon points="398,1060 385.39374056706254,1066.0895174775571 385.39374056706254,1053.9104825224429" fill="#0d3c8c"/><text stroke="#ffffff" stroke-width="7" paint-order="stroke" x="38" y="1076" font-family="DejaVu Sans, Arial, sans-serif" font-size="28" font-weight="bold" text-anchor="start" fill="#0d3c8c">víznyomás</text><line x1="30" y1="925" x2="400" y2="925" stroke="#2f6fd0" stroke-width="3" stroke-dasharray="12 7"/><text x="38" y="915" font-family="DejaVu Sans, Arial, sans-serif" font-size="26" font-weight="normal" text-anchor="start" fill="#0d3c8c">talajvízszint</text><rect x="400" y="815" width="32" height="275" fill="url(#conc)" stroke="#1d2433" stroke-width="2"/><line x1="30" y1="850" x2="400" y2="850" stroke="#1d2433" stroke-width="3"/><text x="465" y="850" font-family="DejaVu Sans, Arial, sans-serif" font-size="32" font-weight="bold" text-anchor="start" fill="#1d2433">Talajvíz</text><text x="465" y="895" font-family="DejaVu Sans, Arial, sans-serif" font-size="28" font-weight="normal" text-anchor="start" fill="#1d2433">kitölti a hézagokat,</text><text x="465" y="933" font-family="DejaVu Sans, Arial, sans-serif" font-size="28" font-weight="normal" text-anchor="start" fill="#1d2433">a mélységgel nő</text><text x="465" y="971" font-family="DejaVu Sans, Arial, sans-serif" font-size="28" font-weight="normal" text-anchor="start" fill="#1d2433">a nyomása</text><line x1="465" y1="1026" x2="491.8" y2="1026.0" stroke="#1d2433" stroke-width="3.5"/><polygon points="499,1026 488.1946347717679,1031.2195864093349 488.1946347717679,1020.7804135906653" fill="#1d2433"/><text x="511" y="1036" font-family="DejaVu Sans, Arial, sans-serif" font-size="28" font-weight="bold" text-anchor="start" fill="#1d2433">talajvíznyomás elleni</text><text x="511" y="1072" font-family="DejaVu Sans, Arial, sans-serif" font-size="28" font-weight="bold" text-anchor="start" fill="#1d2433">szigetelés</text><line x1="0" y1="1145" x2="900" y2="1145" stroke="#c9ced6" stroke-width="2"/><line x1="30" y1="1185" x2="120" y2="1185" stroke="#2f6fd0" stroke-width="3" stroke-dasharray="12 7"/><text x="140" y="1195" font-family="DejaVu Sans, Arial, sans-serif" font-size="28" font-weight="normal" text-anchor="start" fill="#1d2433">talajvízszint, alatta a talajvíz (kék)</text><rect x="30" y="1220" width="90" height="36" fill="url(#conc)" stroke="#1d2433" stroke-width="1.5"/><text x="140" y="1248" font-family="DejaVu Sans, Arial, sans-serif" font-size="28" font-weight="normal" text-anchor="start" fill="#1d2433">a talajba nyúló fal</text><text x="30" y="1310" font-family="DejaVu Sans, Arial, sans-serif" font-size="28" font-weight="normal" text-anchor="start" fill="#5a6270">Sematikus rajz, nem méretarányos.</text></svg>