<svg xmlns="http://www.w3.org/2000/svg" width="640" height="660" viewBox="0 0 640 660" role="img" aria-labelledby="title"><title id="title">Hőfokesési diagram: a külső levegő −20 °C, a hőmérséklet a hőszigetelésben emelkedik a legmeredekebben, a fal belső felülete kb. +17 °C, a belső levegő +20 °C; a 0 °C-os pont a hőszigetelésben van</title><defs><marker id="a" viewBox="0 0 10 10" refX="9" refY="5" markerWidth="7" markerHeight="7" orient="auto-start-reverse"><path d="M0 0L10 5L0 10z" fill="context-stroke"/></marker></defs><rect width="640" height="660" rx="12" fill="#fffdf8"/><g font-family="DejaVu Sans, sans-serif"><text x="320" y="35" font-size="24" text-anchor="middle" fill="#263548">Hőmérséklet a fal keresztmetszetében</text><path d="M513 80 L243 80" stroke="#b64829" stroke-width="3" fill="none" marker-end="url(#a)"/><text x="378" y="70" font-size="18" text-anchor="middle" fill="#263548">hőáram</text><rect x="220" y="103" width="23" height="370" fill="#dde2e7" stroke="#8395a2"/><rect x="243" y="103" width="91" height="370" fill="#f4df9c" stroke="#8395a2"/><rect x="334" y="103" width="179" height="370" fill="#b8d5c4" stroke="#8395a2"/><rect x="513" y="103" width="19" height="370" fill="#dde2e7" stroke="#8395a2"/><rect x="220" y="103" width="82.1" height="370" fill="#7fb2e5" fill-opacity="0.28"/><path d="M124 465.0 L610 465.0" stroke="#bbc4cb" stroke-width="1.5" fill="none"/><text x="116" y="472.0" font-size="18" text-anchor="end" fill="#263548">−20</text><path d="M124 421.25 L610 421.25" stroke="#bbc4cb" stroke-width="1.5" fill="none"/><text x="116" y="428.25" font-size="18" text-anchor="end" fill="#263548">−15</text><path d="M124 377.5 L610 377.5" stroke="#bbc4cb" stroke-width="1.5" fill="none"/><text x="116" y="384.5" font-size="18" text-anchor="end" fill="#263548">−10</text><path d="M124 333.75 L610 333.75" stroke="#bbc4cb" stroke-width="1.5" fill="none"/><text x="116" y="340.75" font-size="18" text-anchor="end" fill="#263548">−5</text><path d="M124 290.0 L610 290.0" stroke="#2f6fb0" stroke-width="2.5" stroke-dasharray="9 6" fill="none"/><text x="116" y="297.0" font-size="19" font-weight="bold" text-anchor="end" fill="#2f6fb0">0</text><path d="M124 246.25 L610 246.25" stroke="#bbc4cb" stroke-width="1.5" fill="none"/><text x="116" y="253.25" font-size="18" text-anchor="end" fill="#263548">+5</text><path d="M124 202.5 L610 202.5" stroke="#bbc4cb" stroke-width="1.5" fill="none"/><text x="116" y="209.5" font-size="18" text-anchor="end" fill="#263548">+10</text><path d="M124 158.75 L610 158.75" stroke="#bbc4cb" stroke-width="1.5" fill="none"/><text x="116" y="165.75" font-size="18" text-anchor="end" fill="#263548">+15</text><path d="M124 115.0 L610 115.0" stroke="#bbc4cb" stroke-width="1.5" fill="none"/><text x="116" y="122.0" font-size="18" text-anchor="end" fill="#263548">+20</text><path d="M130 486 L130 94" stroke="#263548" stroke-width="3" fill="none" marker-end="url(#a)"/><text x="60" y="80" font-size="20" fill="#263548">°C</text><path d="M140 465.00 L200 465.00 L220 456.25 L243 451.88 L334 202.50 L513 145.62 L532 141.25 L552 115.00 L610 115.00" stroke="#b64829" stroke-width="3.5" fill="none" stroke-linejoin="round"/><circle cx="302.1" cy="290" r="6" fill="#2f6fb0" stroke="#fff" stroke-width="1.5"/><circle cx="532" cy="141.25" r="5" fill="#b64829"/><text x="150" y="452" font-size="21" fill="#b64829">t<tspan baseline-shift="sub" font-size="70%">e</tspan></text><text x="540" y="172" font-size="21" fill="#b64829">t<tspan baseline-shift="sub" font-size="70%">i</tspan></text><text x="572" y="102" font-size="18" text-anchor="middle" fill="#b64829">+20 °C</text><text x="261" y="230" font-size="17" text-anchor="middle" fill="#1d4f80" font-weight="bold">fagy-</text><text x="261" y="251" font-size="17" text-anchor="middle" fill="#1d4f80" font-weight="bold">zóna</text><text x="178" y="503" font-size="18" text-anchor="middle" fill="#263548">külső tér</text><text x="424" y="503" font-size="18" text-anchor="middle" fill="#263548">falazat</text><text x="582" y="503" font-size="18" text-anchor="middle" fill="#263548">belső tér</text><text x="298" y="530" font-size="18" text-anchor="middle" fill="#263548">hőszigetelés</text><path d="M231 474 V542" stroke="#8395a2" stroke-width="1.5"/><text x="231" y="560" font-size="17" text-anchor="middle" fill="#263548">külső vakolat</text><path d="M522 474 V542" stroke="#8395a2" stroke-width="1.5"/><text x="522" y="560" font-size="17" text-anchor="middle" fill="#263548">belső vakolat</text><text x="24" y="603" font-size="19" fill="#263548">t<tspan baseline-shift="sub" font-size="70%">e</tspan> = −20 °C: a külső levegő hőmérséklete</text><text x="24" y="633" font-size="19" fill="#263548">t<tspan baseline-shift="sub" font-size="70%">i</tspan> ≈ +17 °C: belső felület; belső levegő: +20 °C</text></g></svg>