<svg xmlns="http://www.w3.org/2000/svg" width="900" height="2054" viewBox="0 0 900 2054"><title>A szigetelés vonalvezetése: pincézetlen és alápincézett épület</title><defs>
<pattern id="soil" width="22" height="22" patternUnits="userSpaceOnUse">
<rect width="22" height="22" fill="#efe3cf"/>
<path d="M2 20 L8 14 M13 9 L19 3" stroke="#8a6a45" stroke-width="1.6"/>
<circle cx="16" cy="17" r="1.6" fill="#8a6a45"/><circle cx="5" cy="6" r="1.3" fill="#8a6a45"/>
</pattern>
<pattern id="conc" width="20" height="20" patternUnits="userSpaceOnUse" patternTransform="rotate(45)">
<rect width="20" height="20" fill="#dfe1e4"/>
<line x1="0" y1="0" x2="0" y2="20" stroke="#6b7078" stroke-width="1.5"/>
<line x1="10" y1="4" x2="10" y2="10" stroke="#6b7078" stroke-width="1.5"/>
</pattern>
<pattern id="mas" width="14" height="14" patternUnits="userSpaceOnUse" patternTransform="rotate(45)">
<rect width="14" height="14" fill="#f6d9cc"/>
<line x1="0" y1="0" x2="0" y2="14" stroke="#a5462f" stroke-width="1.6"/>
</pattern>
</defs><rect width="900" height="2054" fill="#ffffff"/><text x="30" y="48" font-family="DejaVu Sans, Arial, sans-serif" font-size="34" font-weight="bold" text-anchor="start" fill="#1d2433">Pincézetlen épület</text><rect x="0" y="330" width="70" height="160" fill="url(#soil)"/><rect x="830" y="330" width="70" height="160" fill="url(#soil)"/><rect x="120" y="304" width="305" height="186" fill="url(#soil)"/><rect x="475" y="304" width="305" height="186" fill="url(#soil)"/><rect x="120" y="304" width="305" height="30" fill="url(#conc)" stroke="#1d2433" stroke-width="1.5"/><rect x="475" y="304" width="305" height="30" fill="url(#conc)" stroke="#1d2433" stroke-width="1.5"/><rect x="0" y="470" width="900" height="20" fill="url(#soil)"/><line x1="0" y1="330" x2="70" y2="330" stroke="#1d2433" stroke-width="3"/><line x1="830" y1="330" x2="900" y2="330" stroke="#1d2433" stroke-width="3"/><rect x="120" y="256" width="305" height="34" fill="#cfd6dc" stroke="#1d2433" stroke-width="1.5"/><rect x="475" y="256" width="305" height="34" fill="#cfd6dc" stroke="#1d2433" stroke-width="1.5"/><rect x="70" y="95" width="50" height="195" fill="url(#mas)" stroke="#1d2433" stroke-width="2"/><rect x="70" y="304" width="50" height="91" fill="url(#mas)" stroke="#1d2433" stroke-width="2"/><rect x="45" y="395" width="100" height="75" fill="url(#conc)" stroke="#1d2433" stroke-width="2"/><path d="M64 95 l6 -6 l6 6 l6 -6 l6 6 l6 -6 l6 6 l6 -6 l6 6 l8 0" fill="none" stroke="#1d2433" stroke-width="1.5" stroke-linecap="butt" stroke-linejoin="round"/><rect x="425" y="95" width="50" height="195" fill="url(#mas)" stroke="#1d2433" stroke-width="2"/><rect x="425" y="304" width="50" height="91" fill="url(#mas)" stroke="#1d2433" stroke-width="2"/><rect x="400" y="395" width="100" height="75" fill="url(#conc)" stroke="#1d2433" stroke-width="2"/><path d="M419 95 l6 -6 l6 6 l6 -6 l6 6 l6 -6 l6 6 l6 -6 l6 6 l8 0" fill="none" stroke="#1d2433" stroke-width="1.5" stroke-linecap="butt" stroke-linejoin="round"/><rect x="780" y="95" width="50" height="195" fill="url(#mas)" stroke="#1d2433" stroke-width="2"/><rect x="780" y="304" width="50" height="91" fill="url(#mas)" stroke="#1d2433" stroke-width="2"/><rect x="755" y="395" width="100" height="75" fill="url(#conc)" stroke="#1d2433" stroke-width="2"/><path d="M774 95 l6 -6 l6 6 l6 -6 l6 6 l6 -6 l6 6 l6 -6 l6 6 l8 0" fill="none" stroke="#1d2433" stroke-width="1.5" stroke-linecap="butt" stroke-linejoin="round"/><rect x="70" y="290" width="760" height="14" fill="#ffffff"/><line x1="70" y1="293" x2="830" y2="293" stroke="#1747a6" stroke-width="5"/><line x1="70" y1="301" x2="830" y2="301" stroke="#1747a6" stroke-width="5"/><line x1="545" y1="165" x2="452" y2="297" stroke="#1d2433" stroke-width="2"/><circle cx="452" cy="297" r="4.5" fill="#1d2433"/><circle cx="545" cy="165" r="19" fill="#ffffff" stroke="#1d2433" stroke-width="2.5"/><text x="545" y="175" font-family="DejaVu Sans, Arial, sans-serif" font-size="28" font-weight="bold" text-anchor="middle" fill="#1d2433">1</text><line x1="270" y1="175" x2="270" y2="297" stroke="#1d2433" stroke-width="2"/><circle cx="270" cy="297" r="4.5" fill="#1d2433"/><circle cx="270" cy="175" r="19" fill="#ffffff" stroke="#1d2433" stroke-width="2.5"/><text x="270" y="185" font-family="DejaVu Sans, Arial, sans-serif" font-size="28" font-weight="bold" text-anchor="middle" fill="#1d2433">2</text><line x1="610" y1="225" x2="610" y2="273" stroke="#1d2433" stroke-width="2"/><circle cx="610" cy="273" r="4.5" fill="#1d2433"/><circle cx="610" cy="225" r="19" fill="#ffffff" stroke="#1d2433" stroke-width="2.5"/><text x="610" y="235" font-family="DejaVu Sans, Arial, sans-serif" font-size="28" font-weight="bold" text-anchor="middle" fill="#1d2433">3</text><line x1="610" y1="545" x2="610" y2="319.0" stroke="#1d2433" stroke-width="2"/><circle cx="610" cy="319.0" r="4.5" fill="#1d2433"/><circle cx="610" cy="545" r="19" fill="#ffffff" stroke="#1d2433" stroke-width="2.5"/><text x="610" y="555" font-family="DejaVu Sans, Arial, sans-serif" font-size="28" font-weight="bold" text-anchor="middle" fill="#1d2433">4</text><line x1="450" y1="545" x2="450" y2="435" stroke="#1d2433" stroke-width="2"/><circle cx="450" cy="435" r="4.5" fill="#1d2433"/><circle cx="450" cy="545" r="19" fill="#ffffff" stroke="#1d2433" stroke-width="2.5"/><text x="450" y="555" font-family="DejaVu Sans, Arial, sans-serif" font-size="28" font-weight="bold" text-anchor="middle" fill="#1d2433">5</text><line x1="270" y1="545" x2="270" y2="420" stroke="#1d2433" stroke-width="2"/><circle cx="270" cy="420" r="4.5" fill="#1d2433"/><circle cx="270" cy="545" r="19" fill="#ffffff" stroke="#1d2433" stroke-width="2.5"/><text x="270" y="555" font-family="DejaVu Sans, Arial, sans-serif" font-size="28" font-weight="bold" text-anchor="middle" fill="#1d2433">6</text><line x1="40" y1="240" x2="30" y2="330" stroke="#1d2433" stroke-width="2"/><circle cx="30" cy="330" r="4.5" fill="#1d2433"/><circle cx="40" cy="240" r="19" fill="#ffffff" stroke="#1d2433" stroke-width="2.5"/><text x="40" y="250" font-family="DejaVu Sans, Arial, sans-serif" font-size="28" font-weight="bold" text-anchor="middle" fill="#1d2433">7</text><circle cx="49" cy="610" r="19" fill="#ffffff" stroke="#1d2433" stroke-width="2.5"/><text x="49" y="620" font-family="DejaVu Sans, Arial, sans-serif" font-size="28" font-weight="bold" text-anchor="middle" fill="#1d2433">1</text><text x="82" y="620" font-family="DejaVu Sans, Arial, sans-serif" font-size="30" font-weight="normal" text-anchor="start" fill="#1d2433">vízszintes falszigetelés (a fal alatt)</text><circle cx="49" cy="654" r="19" fill="#ffffff" stroke="#1d2433" stroke-width="2.5"/><text x="49" y="664" font-family="DejaVu Sans, Arial, sans-serif" font-size="28" font-weight="bold" text-anchor="middle" fill="#1d2433">2</text><text x="82" y="664" font-family="DejaVu Sans, Arial, sans-serif" font-size="30" font-weight="normal" text-anchor="start" fill="#1d2433">padlószigetelés (a padló alatt)</text><circle cx="49" cy="698" r="19" fill="#ffffff" stroke="#1d2433" stroke-width="2.5"/><text x="49" y="708" font-family="DejaVu Sans, Arial, sans-serif" font-size="28" font-weight="bold" text-anchor="middle" fill="#1d2433">3</text><text x="82" y="708" font-family="DejaVu Sans, Arial, sans-serif" font-size="30" font-weight="normal" text-anchor="start" fill="#1d2433">padló</text><circle cx="49" cy="742" r="19" fill="#ffffff" stroke="#1d2433" stroke-width="2.5"/><text x="49" y="752" font-family="DejaVu Sans, Arial, sans-serif" font-size="28" font-weight="bold" text-anchor="middle" fill="#1d2433">4</text><text x="82" y="752" font-family="DejaVu Sans, Arial, sans-serif" font-size="30" font-weight="normal" text-anchor="start" fill="#1d2433">aljzat (betonlemez a talajon)</text><circle cx="49" cy="786" r="19" fill="#ffffff" stroke="#1d2433" stroke-width="2.5"/><text x="49" y="796" font-family="DejaVu Sans, Arial, sans-serif" font-size="28" font-weight="bold" text-anchor="middle" fill="#1d2433">5</text><text x="82" y="796" font-family="DejaVu Sans, Arial, sans-serif" font-size="30" font-weight="normal" text-anchor="start" fill="#1d2433">sávalap</text><circle cx="49" cy="830" r="19" fill="#ffffff" stroke="#1d2433" stroke-width="2.5"/><text x="49" y="840" font-family="DejaVu Sans, Arial, sans-serif" font-size="28" font-weight="bold" text-anchor="middle" fill="#1d2433">6</text><text x="82" y="840" font-family="DejaVu Sans, Arial, sans-serif" font-size="30" font-weight="normal" text-anchor="start" fill="#1d2433">talaj</text><circle cx="49" cy="874" r="19" fill="#ffffff" stroke="#1d2433" stroke-width="2.5"/><text x="49" y="884" font-family="DejaVu Sans, Arial, sans-serif" font-size="28" font-weight="bold" text-anchor="middle" fill="#1d2433">7</text><text x="82" y="884" font-family="DejaVu Sans, Arial, sans-serif" font-size="30" font-weight="normal" text-anchor="start" fill="#1d2433">terepszint</text><text x="30" y="944" font-family="DejaVu Sans, Arial, sans-serif" font-size="30" font-weight="normal" text-anchor="start" fill="#5a6270">A két rész egy síkban, a terep fölött fut végig.</text><line x1="0" y1="980" x2="900" y2="980" stroke="#c9ced6" stroke-width="2"/><text x="30" y="1048" font-family="DejaVu Sans, Arial, sans-serif" font-size="34" font-weight="bold" text-anchor="start" fill="#1d2433">Alápincézett épület: teknőszigetelés</text><rect x="0" y="1150" width="152" height="474" fill="url(#soil)"/><rect x="748" y="1150" width="152" height="474" fill="url(#soil)"/><rect x="0" y="1514" width="900" height="110" fill="url(#soil)"/><line x1="0" y1="1150" x2="152" y2="1150" stroke="#1d2433" stroke-width="3"/><line x1="748" y1="1150" x2="900" y2="1150" stroke="#1d2433" stroke-width="3"/><polygon points="127,1469 773,1469 773,1564 635,1564 635,1514 265,1514 265,1564 127,1564" fill="url(#conc)" stroke="#1d2433" stroke-width="2" stroke-linejoin="round"/><rect x="235" y="1421" width="430" height="34" fill="#cfd6dc" stroke="#1d2433" stroke-width="1.5"/><rect x="180" y="1085" width="55" height="370" fill="url(#mas)" stroke="#1d2433" stroke-width="2"/><path d="M174 1085 l6 -6 l6 6 l6 -6 l6 6 l6 -6 l6 6 l25 0" fill="none" stroke="#1d2433" stroke-width="1.5" stroke-linecap="butt" stroke-linejoin="round"/><rect x="665" y="1085" width="55" height="370" fill="url(#mas)" stroke="#1d2433" stroke-width="2"/><path d="M659 1085 l6 -6 l6 6 l6 -6 l6 6 l6 -6 l6 6 l25 0" fill="none" stroke="#1d2433" stroke-width="1.5" stroke-linecap="butt" stroke-linejoin="round"/><path d="M169 1105 L169 1458 L731 1458 L731 1105" fill="none" stroke="#1747a6" stroke-width="5" stroke-linecap="butt" stroke-linejoin="round"/><path d="M177 1105 L177 1466 L723 1466 L723 1105" fill="none" stroke="#1747a6" stroke-width="5" stroke-linecap="butt" stroke-linejoin="round"/><rect x="152" y="1115" width="14" height="354" fill="#7f8c8d" stroke="#1d2433" stroke-width="1"/><rect x="734" y="1115" width="14" height="354" fill="#7f8c8d" stroke="#1d2433" stroke-width="1"/><line x1="90" y1="1250" x2="173" y2="1300" stroke="#1d2433" stroke-width="2"/><circle cx="173" cy="1300" r="4.5" fill="#1d2433"/><circle cx="90" cy="1250" r="19" fill="#ffffff" stroke="#1d2433" stroke-width="2.5"/><text x="90" y="1260" font-family="DejaVu Sans, Arial, sans-serif" font-size="28" font-weight="bold" text-anchor="middle" fill="#1d2433">1</text><line x1="450" y1="1330" x2="450" y2="1462" stroke="#1d2433" stroke-width="2"/><circle cx="450" cy="1462" r="4.5" fill="#1d2433"/><circle cx="450" cy="1330" r="19" fill="#ffffff" stroke="#1d2433" stroke-width="2.5"/><text x="450" y="1340" font-family="DejaVu Sans, Arial, sans-serif" font-size="28" font-weight="bold" text-anchor="middle" fill="#1d2433">2</text><line x1="300" y1="1250" x2="690" y2="1250" stroke="#1d2433" stroke-width="2"/><circle cx="690" cy="1250" r="4.5" fill="#1d2433"/><circle cx="300" cy="1250" r="19" fill="#ffffff" stroke="#1d2433" stroke-width="2.5"/><text x="300" y="1260" font-family="DejaVu Sans, Arial, sans-serif" font-size="28" font-weight="bold" text-anchor="middle" fill="#1d2433">3</text><line x1="450" y1="1609" x2="450" y2="1491" stroke="#1d2433" stroke-width="2"/><circle cx="450" cy="1491" r="4.5" fill="#1d2433"/><circle cx="450" cy="1609" r="19" fill="#ffffff" stroke="#1d2433" stroke-width="2.5"/><text x="450" y="1619" font-family="DejaVu Sans, Arial, sans-serif" font-size="28" font-weight="bold" text-anchor="middle" fill="#1d2433">4</text><line x1="820" y1="1250" x2="741.0" y2="1300" stroke="#1d2433" stroke-width="2"/><circle cx="741.0" cy="1300" r="4.5" fill="#1d2433"/><circle cx="820" cy="1250" r="19" fill="#ffffff" stroke="#1d2433" stroke-width="2.5"/><text x="820" y="1260" font-family="DejaVu Sans, Arial, sans-serif" font-size="28" font-weight="bold" text-anchor="middle" fill="#1d2433">5</text><line x1="840" y1="1105" x2="860" y2="1150" stroke="#1d2433" stroke-width="2"/><circle cx="860" cy="1150" r="4.5" fill="#1d2433"/><circle cx="840" cy="1105" r="19" fill="#ffffff" stroke="#1d2433" stroke-width="2.5"/><text x="840" y="1115" font-family="DejaVu Sans, Arial, sans-serif" font-size="28" font-weight="bold" text-anchor="middle" fill="#1d2433">6</text><circle cx="49" cy="1684" r="19" fill="#ffffff" stroke="#1d2433" stroke-width="2.5"/><text x="49" y="1694" font-family="DejaVu Sans, Arial, sans-serif" font-size="28" font-weight="bold" text-anchor="middle" fill="#1d2433">1</text><text x="82" y="1694" font-family="DejaVu Sans, Arial, sans-serif" font-size="30" font-weight="normal" text-anchor="start" fill="#1d2433">függőleges falszigetelés</text><circle cx="49" cy="1728" r="19" fill="#ffffff" stroke="#1d2433" stroke-width="2.5"/><text x="49" y="1738" font-family="DejaVu Sans, Arial, sans-serif" font-size="28" font-weight="bold" text-anchor="middle" fill="#1d2433">2</text><text x="82" y="1738" font-family="DejaVu Sans, Arial, sans-serif" font-size="30" font-weight="normal" text-anchor="start" fill="#1d2433">padlószigetelés (a falak alatt is)</text><circle cx="49" cy="1772" r="19" fill="#ffffff" stroke="#1d2433" stroke-width="2.5"/><text x="49" y="1782" font-family="DejaVu Sans, Arial, sans-serif" font-size="28" font-weight="bold" text-anchor="middle" fill="#1d2433">3</text><text x="82" y="1782" font-family="DejaVu Sans, Arial, sans-serif" font-size="30" font-weight="normal" text-anchor="start" fill="#1d2433">pincefal</text><circle cx="49" cy="1816" r="19" fill="#ffffff" stroke="#1d2433" stroke-width="2.5"/><text x="49" y="1826" font-family="DejaVu Sans, Arial, sans-serif" font-size="28" font-weight="bold" text-anchor="middle" fill="#1d2433">4</text><text x="82" y="1826" font-family="DejaVu Sans, Arial, sans-serif" font-size="30" font-weight="normal" text-anchor="start" fill="#1d2433">aljzat (alaplemez)</text><circle cx="49" cy="1860" r="19" fill="#ffffff" stroke="#1d2433" stroke-width="2.5"/><text x="49" y="1870" font-family="DejaVu Sans, Arial, sans-serif" font-size="28" font-weight="bold" text-anchor="middle" fill="#1d2433">5</text><text x="82" y="1870" font-family="DejaVu Sans, Arial, sans-serif" font-size="30" font-weight="normal" text-anchor="start" fill="#1d2433">a szigetelést védő réteg</text><circle cx="49" cy="1904" r="19" fill="#ffffff" stroke="#1d2433" stroke-width="2.5"/><text x="49" y="1914" font-family="DejaVu Sans, Arial, sans-serif" font-size="28" font-weight="bold" text-anchor="middle" fill="#1d2433">6</text><text x="82" y="1914" font-family="DejaVu Sans, Arial, sans-serif" font-size="30" font-weight="normal" text-anchor="start" fill="#1d2433">terepszint</text><text x="30" y="1974" font-family="DejaVu Sans, Arial, sans-serif" font-size="30" font-weight="normal" text-anchor="start" fill="#5a6270">Az 1 és a 2 együtt, megszakítás nélkül: teknő.</text><text x="30" y="2019" font-family="DejaVu Sans, Arial, sans-serif" font-size="28" font-weight="normal" text-anchor="start" fill="#5a6270">Sematikus rajz, nem méretarányos.</text></svg>